<svg fill="none" height="512" viewBox="0 0 24 24" width="512" xmlns="http://www.w3.org/2000/svg"><g fill="rgb(0,0,0)"><path clip-rule="evenodd" d="m18.5 11.5v-5.5h1.5v5.5c0 .4142-.3358.75-.75.75s-.75-.3358-.75-.75z" fill-rule="evenodd"/><path d="m16 10v-3h-8v3c0 2.2091 1.79086 4 4 4 2.2091 0 4-1.7909 4-4z"/><path d="m4.02838 5.5431 6.75352-3.00158c.7757-.34475 1.6612-.34475 2.4369 0l6.7535 3.00158c.3959.17596.3959.73785 0 .91381l-6.7535 3.00158c-.7757.34475-1.6612.34475-2.4369 0l-6.75352-3.00158c-.39591-.17596-.39591-.73785 0-.91381z"/><path d="m14.2996 15.3996-1.5886 1.6063c-.3914.3958-1.0306.3958-1.422 0l-1.58855-1.6063c-.2454-.2481-.60364-.3539-.93845-.2554-2.80514.8249-4.762 2.6887-4.762 4.8559 0 1.1045.89543 2 2 2h12c1.1046 0 2-.8955 2-2 0-2.1672-1.9569-4.031-4.762-4.8559-.3348-.0985-.6931.0073-.9384.2554z"/></g></svg>